<svg xmlns="http://www.w3.org/2000/svg" xmlns:xlink="http://www.w3.org/1999/xlink" viewBox="0 0 24 24" version="1.1" width="24" height="24">
<g id="surface1">
<path style=" " d="M 5 2 L 5 3 C 3.355469 3 2 4.355469 2 6 L 2 19 C 2 20.644531 3.355469 22 5 22 L 19 22 C 20.644531 22 22 20.644531 22 19 L 22 6 C 22 4.355469 20.644531 3 19 3 L 19 2 L 15 2 L 15 3 L 11 3 L 11 2 Z M 5 5 L 19 5 C 19.554688 5 20 5.445313 20 6 L 20 9 L 4 9 L 4 6 C 4 5.445313 4.445313 5 5 5 Z M 7 6 C 6.449219 6 6 6.449219 6 7 C 6 7.550781 6.449219 8 7 8 C 7.550781 8 8 7.550781 8 7 C 8 6.449219 7.550781 6 7 6 Z M 10 6 C 9.449219 6 9 6.449219 9 7 C 9 7.550781 9.449219 8 10 8 C 10.550781 8 11 7.550781 11 7 C 11 6.449219 10.550781 6 10 6 Z M 13 6 C 12.449219 6 12 6.449219 12 7 C 12 7.550781 12.449219 8 13 8 C 13.550781 8 14 7.550781 14 7 C 14 6.449219 13.550781 6 13 6 Z M 17 6 C 16.449219 6 16 6.449219 16 7 C 16 7.550781 16.449219 8 17 8 C 17.550781 8 18 7.550781 18 7 C 18 6.449219 17.550781 6 17 6 Z M 4 11 L 20 11 L 20 19 C 20 19.554688 19.554688 20 19 20 L 5 20 C 4.445313 20 4 19.554688 4 19 Z M 6 13 L 6 18 L 18 18 L 18 13 Z "></path>
</g>
</svg>