<svg xmlns="http://www.w3.org/2000/svg" xmlns:xlink="http://www.w3.org/1999/xlink" viewBox="0 0 24 24" version="1.1" width="24" height="24">
<g id="surface1">
<path style=" " d="M 7.5 2 L 5 5 L 10 5 Z M 14 2 L 16.5 5 L 19 2 Z M 4 6 C 2.894531 6 2 6.894531 2 8 L 2 20 C 2 21.105469 2.894531 22 4 22 L 20 22 C 21.105469 22 22 21.105469 22 20 L 22 8 C 22 6.894531 21.105469 6 20 6 Z M 6 7.75 C 6.691406 7.75 7.25 8.308594 7.25 9 C 7.25 9.691406 6.691406 10.25 6 10.25 C 5.308594 10.25 4.75 9.691406 4.75 9 C 4.75 8.308594 5.308594 7.75 6 7.75 Z M 12 7.75 C 12.691406 7.75 13.25 8.308594 13.25 9 C 13.25 9.691406 12.691406 10.25 12 10.25 C 11.308594 10.25 10.75 9.691406 10.75 9 C 10.75 8.308594 11.308594 7.75 12 7.75 Z M 18 7.75 C 18.691406 7.75 19.25 8.308594 19.25 9 C 19.25 9.691406 18.691406 10.25 18 10.25 C 17.308594 10.25 16.75 9.691406 16.75 9 C 16.75 8.308594 17.308594 7.75 18 7.75 Z M 6 11 C 7.105469 11 8 11.894531 8 13 L 8 16 L 7 16 L 7 20 L 5 20 L 5 16 L 4 16 L 4 13 C 4 11.894531 4.894531 11 6 11 Z M 12 11 C 13.105469 11 14 11.894531 14 13 L 14 16 L 13 16 L 13 20 L 11 20 L 11 16 L 10 16 L 10 13 C 10 11.894531 10.894531 11 12 11 Z M 18 11 C 19.105469 11 20 11.894531 20 13 L 20 16 L 19 16 L 19 20 L 17 20 L 17 16 L 16 16 L 16 13 C 16 11.894531 16.894531 11 18 11 Z "></path>
</g>
</svg>