<svg xmlns="http://www.w3.org/2000/svg" xmlns:xlink="http://www.w3.org/1999/xlink" viewBox="0 0 24 24" version="1.1" width="24" height="24">
<g id="surface1">
<path style=" " d="M 3 3 L 3 5 L 21 5 L 21 3 Z M 5.90625 6 L 9.9375 8.1875 L 4.53125 11.125 C 4.046875 11.390625 3.859375 11.984375 4.125 12.46875 C 4.390625 12.953125 4.984375 13.140625 5.46875 12.875 L 18.15625 6 L 13.9375 6 L 12.0625 7.03125 L 10.125 6 Z M 15.15625 8.71875 L 13.0625 9.84375 L 15.9375 11.40625 L 18.03125 10.25 Z M 18.90625 11 C 18.777344 11.011719 18.652344 11.058594 18.53125 11.125 L 11.96875 14.6875 L 8.0625 12.59375 L 5.96875 13.75 L 9.84375 15.84375 L 5.84375 18 L 10.0625 18 L 19.46875 12.875 C 19.953125 12.609375 20.140625 12.015625 19.875 11.53125 C 19.675781 11.167969 19.292969 10.960938 18.90625 11 Z M 15.0625 16.375 L 12.96875 17.5 L 13.875 18 L 18.09375 18 Z M 3 19 L 3 21 L 21 21 L 21 19 Z "></path>
</g>
</svg>