<svg xmlns="http://www.w3.org/2000/svg" xmlns:xlink="http://www.w3.org/1999/xlink" viewBox="0 0 24 24" version="1.1" width="24" height="24">
<g id="surface1">
<path style=" " d="M 3 6 C 2.398438 6 2 6.398438 2 7 L 2 8 L 22 8 L 22 7 C 22 6.398438 21.601563 6 21 6 Z M 1 9 C 0.398438 9 0 9.398438 0 10 L 0 14 C 0 14.601563 0.398438 15 1 15 L 23 15 C 23.601563 15 24 14.601563 24 14 L 24 10 C 24 9.398438 23.601563 9 23 9 Z M 3 10.5 L 5 10.5 L 5 13.5 L 3 13.5 Z M 7 10.5 L 9 10.5 L 9 13.5 L 7 13.5 Z M 11 10.5 L 13 10.5 L 13 13.5 L 11 13.5 Z M 15 10.5 L 17 10.5 L 17 13.5 L 15 13.5 Z M 19 10.5 L 21 10.5 L 21 13.5 L 19 13.5 Z M 2 16 L 2 17 C 2 17.601563 2.398438 18 3 18 L 21 18 C 21.601563 18 22 17.601563 22 17 L 22 16 Z "></path>
</g>
</svg>