<svg xmlns="http://www.w3.org/2000/svg" xmlns:xlink="http://www.w3.org/1999/xlink" viewBox="0 0 24 24" version="1.1" width="24" height="24">
<g id="surface1">
<path style=" " d="M 11 2 L 11 3.1875 C 9.839844 3.601563 9 4.699219 9 6 C 9 6.558594 9.140625 7.085938 9.40625 7.53125 L 6.9375 14 L 4 14 L 4 16 L 6.15625 16 L 5 19 L 5 22 L 6 22 L 8.5625 16 L 11 16 L 11 17 L 13 17 L 13 16 L 15.4375 16 L 18 22 L 19 22 L 19 19 L 17.84375 16 L 20 16 L 20 14 L 17.0625 14 L 14.59375 7.53125 C 14.859375 7.085938 15 6.558594 15 6 C 15 4.699219 14.160156 3.601563 13 3.1875 L 13 2 Z M 12 5 C 12.550781 5 13 5.449219 13 6 C 13 6.554688 12.550781 7 12 7 C 11.449219 7 11 6.554688 11 6 C 11 5.449219 11.449219 5 12 5 Z M 11.59375 8.96875 C 11.730469 8.988281 11.859375 9 12 9 C 12.140625 9 12.269531 8.988281 12.40625 8.96875 L 14.5625 14 L 13 14 L 13 13 L 11 13 L 11 14 L 9.4375 14 Z "></path>
</g>
</svg>