<svg xmlns="http://www.w3.org/2000/svg" xmlns:xlink="http://www.w3.org/1999/xlink" viewBox="0 0 24 24" version="1.1" width="24" height="24">
<g id="surface1">
<path style=" " d="M 11.84375 2.03125 C 10.3125 2.074219 9 3.425781 9 5 C 9 5.898438 9.398438 6.6875 10 7.1875 C 10.300781 7.386719 10.40625 7.792969 10.40625 8.09375 C 10.40625 8.59375 10.09375 9.113281 9.59375 9.3125 L 6 10.5 L 8 17 L 16 17 L 18 10.5 L 14.40625 9.1875 C 14.007813 9.085938 13.59375 8.59375 13.59375 8.09375 C 13.59375 7.792969 13.699219 7.386719 14 7.1875 C 14.800781 6.488281 15.207031 5.507813 14.90625 4.40625 C 14.707031 3.207031 13.699219 2.292969 12.5 2.09375 C 12.273438 2.042969 12.0625 2.023438 11.84375 2.03125 Z M 9 18 L 9 20 L 7 20 L 7 22 L 17 22 L 17 20 L 15 20 L 15 18 Z "></path>
</g>
</svg>