<svg xmlns="http://www.w3.org/2000/svg" xmlns:xlink="http://www.w3.org/1999/xlink" viewBox="0 0 24 24" version="1.1" width="24" height="24">
<g id="surface1">
<path style=" " d="M 15.5 2 C 14.101563 2 13 3.101563 13 4.5 C 13 5.898438 14.101563 7 15.5 7 C 16.898438 7 18 5.898438 18 4.5 C 18 3.101563 16.898438 2 15.5 2 Z M 15.5 7 L 7 7 L 7 9 L 13 9 L 13 22 L 15 22 L 15 16 L 16 16 L 16 22 L 18 22 L 18 16 L 20 16 L 20 10 C 20 8.300781 18.601563 7 17 7 Z M 8 11 L 8 13 L 10 13 L 10 11 Z M 4 14 L 4 22 L 12 22 L 12 14 L 10 14 L 10 20 L 6 20 L 6 14 Z M 7 15 L 7 17 L 9 17 L 9 15 Z "></path>
</g>
</svg>