<svg xmlns="http://www.w3.org/2000/svg" xmlns:xlink="http://www.w3.org/1999/xlink" viewBox="0 0 24 24" version="1.1" width="24" height="24">
<g id="surface1">
<path style=" " d="M 6 2 L 6 4 L 5 4 C 3.894531 4 3 4.894531 3 6 L 3 20 C 3 21.105469 3.894531 22 5 22 L 19 22 C 20.105469 22 21 21.105469 21 20 L 21 6 C 21 4.894531 20.105469 4 19 4 L 18 4 L 18 2 L 16 2 L 16 4 L 8 4 L 8 2 Z M 5 9 L 19 9 L 19 20 L 5 20 Z M 16 10 L 10 16.1875 L 7.40625 13.75 L 6 15.1875 L 10 19 L 17.40625 11.40625 Z "></path>
</g>
</svg>