<svg xmlns="http://www.w3.org/2000/svg" xmlns:xlink="http://www.w3.org/1999/xlink" viewBox="0 0 24 24" version="1.1" width="24" height="24">
<g id="surface1">
<path style=" " d="M 4 2 C 3.449219 2 3 2.449219 3 3 C 3 3.550781 3.449219 4 4 4 L 4 7 C 4 9.210938 5.789063 11 8 11 L 10 11 C 10 11.550781 10.449219 12 11 12 C 11.550781 12 12 11.550781 12 11 L 12 7 C 12 6.449219 11.550781 6 11 6 C 10.449219 6 10 6.449219 10 7 L 9 7 C 8.449219 7 8 6.550781 8 6 L 8 4 C 8.550781 4 9 3.550781 9 3 C 9 2.449219 8.550781 2 8 2 Z M 13 7 L 13 11 L 15 11 C 15.550781 11 16 11.449219 16 12 L 16 13 C 15.449219 13 15 13.449219 15 14 C 15 14.550781 15.449219 15 16 15 L 20 15 C 20.550781 15 21 14.550781 21 14 C 21 13.449219 20.550781 13 20 13 L 20 11 C 20 8.789063 18.210938 7 16 7 Z M 18 16.40625 C 18 16.40625 16 18.894531 16 20 C 16 21.105469 16.894531 22 18 22 C 19.105469 22 20 21.105469 20 20 C 20 18.894531 18 16.40625 18 16.40625 Z "></path>
</g>
</svg>