<?xml version="1.0" encoding="UTF-8"?>
<svg width="175px" height="175px" viewBox="0 0 175 175" version="1.1" xmlns="http://www.w3.org/2000/svg" xmlns:xlink="http://www.w3.org/1999/xlink">
  <defs></defs>
  <path d="M162.248181,133.010137 C146.88456,158.190226 119.155346,175 87.5,175 C55.8446537,175 28.1154404,158.190226 12.7518185,133.010137 L53.5790209,133.010137 C55.1473146,133.010137 56.4186679,131.751704 56.4186679,130.199348 L56.4186679,92.5347783 C56.4186679,90.9824225 55.1473146,89.7239895 53.5790209,89.7239895 C52.0107271,89.7239895 50.7393739,90.9824225 50.7393739,92.5347783 L50.7393727,127.388559 L9.60015623,127.388559 C3.4631108,115.427346 0,101.8681 0,87.5 C0,39.1750844 39.1750844,0 87.5,0 C135.824916,0 175,39.1750844 175,87.5 C175,101.8681 171.536889,115.427346 165.399839,127.388569 L131.870644,127.388559 L131.870644,109.399511 C131.870644,107.847155 130.599291,106.588722 129.030997,106.588722 C127.462703,106.588722 126.19135,107.847155 126.19135,109.399511 L126.19135,130.199348 C126.19135,131.751704 127.462703,133.010137 129.030997,133.010137 L162.248181,133.010137 Z M97.8632658,87.7564374 C97.8725389,87.6639888 97.8772867,87.5702224 97.8772867,87.4753585 C97.8772867,85.9230027 96.6059334,84.6645697 95.0376397,84.6645697 L83.6790517,84.6645697 C82.110758,84.6645697 80.8394048,85.9230027 80.8394048,87.4753585 L80.839405,127.388561 L75.1601109,127.388561 L75.1601108,109.399511 C75.1601108,107.847155 73.8887575,106.588722 72.3204638,106.588722 C70.7521701,106.588722 69.4808168,107.847155 69.4808168,109.399511 L69.4808168,130.199348 C69.4808168,131.751704 70.7521701,133.010137 72.3204638,133.010137 L83.6790517,133.010137 C85.2473455,133.010137 86.5186987,131.751704 86.5186987,130.199348 L86.5186987,90.2861475 L92.1979927,90.2861473 L92.1979927,111.648142 C92.1979927,113.200498 93.469346,114.458931 95.0376397,114.458931 L106.396228,114.458931 C107.964521,114.458931 109.235875,113.200498 109.235875,111.648142 L108.870884,79.6051501 L126.273756,79.6051501 L126.273757,97.0320404 C126.273757,98.5843961 127.54511,99.8428291 129.113404,99.8428291 C130.681697,99.8428291 131.95305,98.5843961 131.95305,97.0320404 L131.95305,76.7943611 C131.95305,75.2420053 130.681697,73.9835723 129.113404,73.9835723 L106.396228,73.9835723 C104.827934,73.9835723 103.556581,75.2420053 103.556581,76.7943611 L103.556581,108.837355 L97.8772868,108.837355 L97.8772867,88.0375163 C97.8772867,87.9426523 97.8725389,87.848886 97.8632658,87.7564374 Z M56.4184408,52.6215777 L69.4808173,52.6215777 L69.4808168,97.0320404 C69.4808168,98.5843961 70.7521701,99.8428291 72.3204638,99.8428291 C73.8887575,99.8428291 75.1601108,98.5843961 75.1601108,97.0320404 L75.1601108,49.8107888 C75.1601108,48.258433 73.8887575,47 72.3204638,47 L53.5787937,47 C52.0105,47 50.7391467,48.258433 50.7391467,49.8107888 L50.7391467,80.1673077 C50.7391467,81.7196634 52.0105,82.9780964 53.5787937,82.9780964 C55.1470874,82.9780964 56.4184407,81.7196634 56.4184407,80.1673077 L56.4184408,52.6215777 Z M142,53 C137.029042,53 133,57.0290416 133,62 C133,66.9709584 137.029042,71 142,71 C146.970958,71 151,66.9709584 151,62 C151,57.0290416 146.970958,53 142,53 Z" id="Combined-Shape"></path>
  <circle id="Oval-3" cx="142" cy="62" r="5"></circle>
</svg>
