<svg xmlns="http://www.w3.org/2000/svg" xmlns:xlink="http://www.w3.org/1999/xlink" viewBox="0 0 24 24" version="1.1" width="24" height="24">
<g id="surface1">
<path style=" " d="M 4 4 C 2.898438 4 2 4.898438 2 6 L 2 18 C 2 19.101563 2.898438 20 4 20 L 4 21 L 6 21 L 6 20 L 18 20 L 18 21 L 20 21 L 20 20 C 21.101563 20 22 19.101563 22 18 L 22 6 C 22 4.898438 21.101563 4 20 4 Z M 4 6 L 20 6 L 20 10 L 19.09375 10 L 19.09375 9.8125 C 19.09375 8.8125 18.3125 8 17.3125 8 L 14.8125 8 C 13.8125 8 13 8.8125 13 9.8125 L 13 10 L 11.09375 10 L 11.09375 9.8125 C 11.09375 8.8125 10.3125 8 9.3125 8 L 6.8125 8 C 5.8125 8 5 8.8125 5 9.8125 L 5 10 L 4 10 Z M 4 12 L 20 12 L 20 18 L 4 18 Z "></path>
</g>
</svg>