<svg xmlns="http://www.w3.org/2000/svg" xmlns:xlink="http://www.w3.org/1999/xlink" viewBox="0 0 24 24" version="1.1" width="24" height="24">
<g id="surface1">
<path style=" " d="M 7 2 C 5.355469 2 4 3.355469 4 5 L 4 19 C 4 20.644531 5.355469 22 7 22 L 17 22 C 18.644531 22 20 20.644531 20 19 L 20 5 C 20 3.355469 18.644531 2 17 2 Z M 7 4 L 17 4 C 17.554688 4 18 4.445313 18 5 L 18 10 L 6 10 L 6 5 C 6 4.445313 6.445313 4 7 4 Z M 8 6 L 8 8 L 10 8 L 10 6 Z M 6 12 L 18 12 L 18 19 C 18 19.554688 17.554688 20 17 20 L 7 20 C 6.445313 20 6 19.554688 6 19 Z M 8 14 L 8 18 L 10 18 L 10 14 Z "></path>
</g>
</svg>