<svg xmlns="http://www.w3.org/2000/svg" xmlns:xlink="http://www.w3.org/1999/xlink" viewBox="0 0 24 24" version="1.1" width="24" height="24">
<g id="surface1">
<path style=" " d="M 22.800781 11.398438 C 22.601563 11.101563 18 5 12 5 C 6 5 1.398438 11.101563 1.199219 11.398438 C 0.898438 11.800781 0.898438 12.199219 1.199219 12.601563 C 1.398438 12.898438 6 19 12 19 C 18 19 22.601563 12.898438 22.800781 12.601563 C 23.101563 12.199219 23.101563 11.800781 22.800781 11.398438 Z M 12 17 C 9.199219 17 7 14.800781 7 12 C 7 9.199219 9.199219 7 12 7 C 14.800781 7 17 9.199219 17 12 C 17 14.800781 14.800781 17 12 17 Z "></path>
</g>
</svg>