<svg xmlns="http://www.w3.org/2000/svg" xmlns:xlink="http://www.w3.org/1999/xlink" viewBox="0 0 24 24" version="1.1" width="24" height="24">
<g id="surface1">
<path style=" " d="M 17.1875 2 C 16.949219 2.003906 16.699219 2.054688 16.46875 2.15625 L 3.09375 8.0625 C 2.398438 8.371094 1.984375 9.066406 2 9.78125 C 2.53125 9.300781 3.230469 9 4 9 L 5.40625 9 L 5.65625 8.40625 L 15 4.28125 L 15.78125 4.53125 C 15.796875 4.601563 15.78125 4.683594 15.8125 4.75 C 16.058594 5.304688 16.742188 5.546875 17.34375 5.28125 C 17.417969 5.25 17.46875 5.199219 17.53125 5.15625 L 18.3125 5.40625 L 19.75 8.65625 L 19.59375 9 L 20 9 C 20.65625 9 21.257813 9.203125 21.75 9.5625 L 18.875 3.09375 C 18.570313 2.402344 17.898438 1.988281 17.1875 2 Z M 16.625 7 C 16.472656 7.007813 16.304688 7.027344 16.15625 7.09375 C 15.558594 7.359375 15.253906 8.039063 15.5 8.59375 C 15.582031 8.777344 15.75 8.894531 15.90625 9 L 17.1875 9 C 17.675781 8.695313 17.910156 8.125 17.6875 7.625 C 17.503906 7.210938 17.082031 6.980469 16.625 7 Z M 11.96875 7.59375 C 11.621094 7.609375 11.246094 7.691406 10.90625 7.84375 C 10.332031 8.097656 9.882813 8.511719 9.59375 9 L 14.40625 9 C 13.964844 8.070313 13.007813 7.542969 11.96875 7.59375 Z M 4 10 C 2.894531 10 2 10.894531 2 12 L 2 20 C 2 21.105469 2.894531 22 4 22 L 20 22 C 21.105469 22 22 21.105469 22 20 L 22 12 C 22 10.894531 21.105469 10 20 10 Z M 6.40625 11.46875 L 17.59375 11.46875 L 18.25 12.09375 C 18.234375 12.171875 18.1875 12.230469 18.1875 12.3125 C 18.1875 12.972656 18.78125 13.5 19.5 13.5 C 19.589844 13.5 19.667969 13.484375 19.75 13.46875 L 20.40625 14.0625 L 20.40625 17.9375 L 19.75 18.53125 C 19.667969 18.515625 19.589844 18.5 19.5 18.5 C 18.78125 18.5 18.1875 19.027344 18.1875 19.6875 C 18.1875 19.769531 18.234375 19.859375 18.25 19.9375 L 17.59375 20.53125 L 6.40625 20.53125 L 5.75 19.90625 C 5.765625 19.828125 5.8125 19.769531 5.8125 19.6875 C 5.8125 19.027344 5.21875 18.5 4.5 18.5 C 4.410156 18.5 4.332031 18.515625 4.25 18.53125 L 3.59375 17.9375 L 3.59375 14.0625 L 4.25 13.46875 C 4.332031 13.484375 4.410156 13.5 4.5 13.5 C 5.21875 13.5 5.8125 12.972656 5.8125 12.3125 C 5.8125 12.230469 5.765625 12.171875 5.75 12.09375 Z M 11.9375 13.21875 C 10.28125 13.21875 8.9375 14.472656 8.9375 16 C 8.9375 17.527344 10.28125 18.78125 11.9375 18.78125 C 13.59375 18.78125 14.9375 17.527344 14.9375 16 C 14.9375 14.472656 13.59375 13.21875 11.9375 13.21875 Z M 6.5 14.8125 C 5.78125 14.8125 5.1875 15.339844 5.1875 16 C 5.1875 16.660156 5.78125 17.1875 6.5 17.1875 C 7.21875 17.1875 7.8125 16.660156 7.8125 16 C 7.8125 15.339844 7.21875 14.8125 6.5 14.8125 Z M 17.5 14.8125 C 16.78125 14.8125 16.1875 15.339844 16.1875 16 C 16.1875 16.660156 16.78125 17.1875 17.5 17.1875 C 18.21875 17.1875 18.8125 16.660156 18.8125 16 C 18.8125 15.339844 18.21875 14.8125 17.5 14.8125 Z "></path>
</g>
</svg>