<svg xmlns="http://www.w3.org/2000/svg" xmlns:xlink="http://www.w3.org/1999/xlink" viewBox="0 0 24 24" version="1.1" width="24" height="24">
<g id="surface1">
<path style=" " d="M 3 2 C 2.398438 2 2 2.398438 2 3 L 2 7 C 2 7.601563 2.398438 8 3 8 L 17 8 C 17.601563 8 18 7.601563 18 7 L 18 3 C 18 2.398438 17.601563 2 17 2 Z M 19 4 L 19 6 L 20 6 L 20 8.6875 C 20 9.527344 19.480469 10.1875 18.65625 10.3125 L 18.625 10.3125 L 9.8125 12.03125 L 9 12.1875 L 9 15 L 11 15 L 11 13.8125 L 18.9375 12.28125 L 19 12.28125 L 19 12.25 C 20.738281 11.945313 22 10.425781 22 8.6875 L 22 4 Z M 9 16 C 8.398438 16 8 16.398438 8 17 L 8 21 C 8 21.601563 8.398438 22 9 22 L 11 22 C 11.601563 22 12 21.601563 12 21 L 12 17 C 12 16.398438 11.601563 16 11 16 Z "></path>
</g>
</svg>