<svg xmlns="http://www.w3.org/2000/svg" xmlns:xlink="http://www.w3.org/1999/xlink" viewBox="0 0 24 24" version="1.1" width="24" height="24">
<g id="surface1">
<path style=" " d="M 17 2 C 15.894531 2 15 2.894531 15 4 C 15 5.105469 15.894531 6 17 6 C 18.105469 6 19 5.105469 19 4 C 19 2.894531 18.105469 2 17 2 Z M 10.875 5.21875 C 10.492188 5.253906 10.148438 5.347656 9.84375 5.46875 L 9.71875 5.53125 C 8.679688 6.097656 6.5625 7.09375 6.5625 7.09375 L 7.4375 8.90625 C 7.4375 8.90625 9.382813 7.976563 10.5625 7.34375 C 10.957031 7.1875 11.164063 7.148438 11.34375 7.21875 L 11.375 7.25 L 11.40625 7.25 L 12.375 7.53125 L 10.3125 11.1875 C 9.8125 12.085938 10.011719 13.207031 10.8125 13.90625 L 13.78125 16.03125 C 14 16.3125 14.082031 16.648438 13.90625 17 L 12 22 L 14.09375 22 L 15.8125 17.6875 C 16.210938 16.585938 15.992188 15.300781 15.09375 14.5 L 13.375 12.78125 L 15.125 9.65625 L 15.46875 10.40625 L 15.5 10.4375 C 15.976563 11.5 17.070313 12.09375 18.1875 12.09375 L 21.09375 12.09375 L 21.09375 10.09375 L 18.1875 10.09375 C 17.722656 10.09375 17.445313 9.902344 17.3125 9.59375 L 17.28125 9.5625 L 16.5 7.96875 L 16.5 7.9375 C 16.210938 7.359375 15.734375 6.882813 15.15625 6.59375 L 15.125 6.59375 L 13.4375 5.78125 L 13.375 5.75 L 13.28125 5.75 L 12.0625 5.375 L 12 5.34375 L 12 5.375 C 11.609375 5.230469 11.238281 5.183594 10.875 5.21875 Z M 9.59375 14.1875 L 9.3125 14.5625 C 9.09375 14.832031 8.765625 15 8.5 15 L 4 15 L 4 17 L 8.5 17 C 9.433594 17 10.292969 16.542969 10.875 15.8125 L 10.90625 15.8125 L 11.1875 15.40625 Z "></path>
</g>
</svg>