<svg xmlns="http://www.w3.org/2000/svg" xmlns:xlink="http://www.w3.org/1999/xlink" viewBox="0 0 24 24" version="1.1" width="24" height="24">
<g id="surface1">
<path style=" " d="M 12 3 L 2 12 L 4 12 L 4 14 L 6 14 L 6 11 L 12 5.6875 L 18 11 L 18 14 L 20 14 L 20 12 L 22 12 Z M 4 15 L 4 17 L 6 17 L 6 15 Z M 18 15 L 18 17 L 20 17 L 20 15 Z M 4 18 L 4 20 C 4 20.601563 4.398438 21 5 21 L 7 21 L 7 19 L 6 19 L 6 18 Z M 18 18 L 18 19 L 17 19 L 17 21 L 19 21 C 19.601563 21 20 20.601563 20 20 L 20 18 Z M 8 19 L 8 21 L 10 21 L 10 19 Z M 11 19 L 11 21 L 13 21 L 13 19 Z M 14 19 L 14 21 L 16 21 L 16 19 Z "></path>
</g>
</svg>