<svg xmlns="http://www.w3.org/2000/svg" xmlns:xlink="http://www.w3.org/1999/xlink" viewBox="0 0 24 24" version="1.1" width="24" height="24">
<g id="surface1">
<path style=" " d="M 20 2 L 4 2 C 2.894531 2 2 2.894531 2 4 L 2 20 C 2 21.105469 2.894531 22 4 22 L 20 22 C 21.105469 22 22 21.105469 22 20 L 22 4 C 22 2.894531 21.105469 2 20 2 Z M 18.359375 15.96875 L 16.492188 15.992188 C 16.492188 15.992188 16.089844 16.070313 15.5625 15.707031 C 14.863281 15.226563 14.203125 13.976563 13.6875 14.140625 C 13.167969 14.308594 13.183594 15.429688 13.183594 15.429688 C 13.183594 15.429688 13.1875 15.628906 13.070313 15.757813 C 12.941406 15.898438 12.6875 15.882813 12.6875 15.882813 L 11.851563 15.882813 C 11.851563 15.882813 10.003906 16.035156 8.378906 14.339844 C 6.605469 12.492188 5.039063 8.839844 5.039063 8.839844 C 5.039063 8.839844 4.949219 8.609375 5.046875 8.492188 C 5.15625 8.363281 5.457031 8.359375 5.457031 8.359375 L 7.457031 8.351563 C 7.457031 8.351563 7.644531 8.382813 7.78125 8.480469 C 7.890625 8.5625 7.953125 8.71875 7.953125 8.71875 C 7.953125 8.71875 8.277344 9.535156 8.707031 10.277344 C 9.542969 11.726563 9.933594 12.042969 10.214844 11.886719 C 10.628906 11.660156 10.503906 9.84375 10.503906 9.84375 C 10.503906 9.84375 10.511719 9.183594 10.296875 8.890625 C 10.128906 8.660156 9.8125 8.59375 9.675781 8.574219 C 9.5625 8.558594 9.746094 8.296875 9.984375 8.179688 C 10.34375 8.003906 10.980469 7.992188 11.730469 8 C 12.316406 8.007813 12.484375 8.042969 12.714844 8.097656 C 13.402344 8.265625 13.171875 8.910156 13.171875 10.453125 C 13.171875 10.949219 13.082031 11.644531 13.4375 11.875 C 13.589844 11.976563 13.964844 11.890625 14.902344 10.296875 C 15.347656 9.539063 15.679688 8.652344 15.679688 8.652344 C 15.679688 8.652344 15.753906 8.496094 15.867188 8.425781 C 15.980469 8.355469 16.136719 8.378906 16.136719 8.378906 L 18.242188 8.367188 C 18.242188 8.367188 18.875 8.289063 18.976563 8.578125 C 19.085938 8.878906 18.742188 9.578125 17.882813 10.726563 C 16.46875 12.609375 16.3125 12.433594 17.484375 13.523438 C 18.605469 14.566406 18.839844 15.074219 18.875 15.136719 C 19.339844 15.90625 18.359375 15.96875 18.359375 15.96875 Z "></path>
</g>
</svg>